<svg height="512pt" viewBox="-53 0 512 512" width="512pt" xmlns="http://www.w3.org/2000/svg"><path fill="#ffffff" d="m400.625 83.679688-79.234375-79.238282c-2.847656-2.84375-6.707031-4.441406-10.730469-4.441406h-295.488281c-8.378906 0-15.171875 6.792969-15.171875 15.171875v481.65625c0 8.378906 6.792969 15.171875 15.171875 15.171875h374.726563c8.378906 0 15.171874-6.792969 15.171874-15.171875v-402.417969c0-4.023437-1.597656-7.882812-4.445312-10.730468zm-47.46875-4.554688-27.324219-.085938v-27.238281zm-322.8125 402.53125v-451.3125h265.144531v63.824219c0 8.359375 6.765625 15.144531 15.125 15.171875l64.113281.195312v372.121094zm0 0"/><path fill="#ffffff" d="m99.464844 168.21875h103.070312c8.378906 0 15.171875-6.792969 15.171875-15.171875s-6.792969-15.171875-15.171875-15.171875h-103.070312c-8.378906 0-15.171875 6.792969-15.171875 15.171875s6.792969 15.171875 15.171875 15.171875zm0 0"/><path fill="#ffffff" d="m289.101562 198.5625h-189.636718c-8.378906 0-15.171875 6.792969-15.171875 15.171875s6.792969 15.171875 15.171875 15.171875h189.636718c8.378907 0 15.171876-6.792969 15.171876-15.171875s-6.792969-15.171875-15.171876-15.171875zm0 0"/><path fill="#ffffff" d="m289.101562 259.542969h-189.636718c-8.378906 0-15.171875 6.792969-15.171875 15.171875s6.792969 15.171875 15.171875 15.171875h189.636718c8.378907 0 15.171876-6.792969 15.171876-15.171875s-6.792969-15.171875-15.171876-15.171875zm0 0"/><path fill="#ffffff" d="m289.101562 320.230469h-189.636718c-8.378906 0-15.171875 6.792969-15.171875 15.171875s6.792969 15.171875 15.171875 15.171875h189.636718c8.378907 0 15.171876-6.792969 15.171876-15.171875s-6.792969-15.171875-15.171876-15.171875zm0 0"/></svg>